<svg width="112" height="32" viewBox="0 0 112 32" fill="none" xmlns="http://www.w3.org/2000/svg">
<rect width="31.9909" height="32" rx="15.9954" fill="#5039BB"/>
<ellipse cx="9.24936" cy="9.25" rx="2.24936" ry="2.25" fill="white"/>
<ellipse cx="15.9974" cy="9.25" rx="2.24936" ry="2.25" fill="white"/>
<ellipse cx="22.7454" cy="9.25" rx="2.24936" ry="2.25" fill="white"/>
<ellipse opacity="0.4" cx="9.24942" cy="16" rx="2.24936" ry="2.25" fill="#1A2642"/>
<ellipse cx="15.9974" cy="16" rx="2.24936" ry="2.25" fill="white"/>
<ellipse opacity="0.4" cx="22.7454" cy="16" rx="2.24936" ry="2.25" fill="#1A2642"/>
<ellipse opacity="0.4" cx="9.24942" cy="22.75" rx="2.24936" ry="2.25" fill="#1A2642"/>
<ellipse cx="15.9974" cy="22.75" rx="2.24936" ry="2.25" fill="white"/>
<ellipse opacity="0.4" cx="22.7454" cy="22.75" rx="2.24936" ry="2.25" fill="#1A2642"/>
<path fill-rule="evenodd" clip-rule="evenodd" d="M49.8342 9.87528H43.986V25.0405H40.9479V9.87528H35.125V7H49.8342V9.87528ZM57.5816 12.5726V15.5751C57.2524 15.5242 56.9233 15.4987 56.6195 15.4987C54.341 15.4987 53.303 16.8219 53.303 19.1373V25.0406H50.3662V12.6489H53.227V14.6336C53.8093 13.285 55.1764 12.4962 56.7967 12.4962C57.1512 12.4962 57.455 12.5471 57.5816 12.5726ZM65.3289 22.7759C67.1517 22.7759 68.772 21.4273 68.772 18.8319C68.772 16.262 67.1517 14.9388 65.3289 14.9388C63.5314 14.9388 61.8857 16.262 61.8857 18.8319C61.8857 21.4019 63.5314 22.7759 65.3289 22.7759ZM65.3281 12.2671C69.0244 12.2671 71.7334 15.0406 71.7334 18.8319C71.7334 22.6486 69.0244 25.4221 65.3281 25.4221C61.6572 25.4221 58.9482 22.6486 58.9482 18.8319C58.9482 15.0406 61.6572 12.2671 65.3281 12.2671ZM79.9871 22.7759C81.8099 22.7759 83.4302 21.4273 83.4302 18.8319C83.4302 16.262 81.8099 14.9388 79.9871 14.9388C78.1896 14.9388 76.5439 16.262 76.5439 18.8319C76.5439 21.4019 78.1896 22.7759 79.9871 22.7759ZM79.9865 12.2671C83.6828 12.2671 86.3917 15.0406 86.3917 18.8319C86.3917 22.6486 83.6828 25.4221 79.9865 25.4221C76.3155 25.4221 73.6066 22.6486 73.6066 18.8319C73.6066 15.0406 76.3155 12.2671 79.9865 12.2671ZM92.1392 29.8751H89.2278V12.6489H92.0633V14.3282C92.6709 13.2595 94.0886 12.369 95.9874 12.369C99.6331 12.369 101.684 15.1679 101.684 18.832C101.684 22.5469 99.4305 25.3459 95.8861 25.3459C94.1139 25.3459 92.7721 24.5825 92.1392 23.6411V29.8751ZM98.7465 18.8317C98.7465 16.5163 97.4047 14.9896 95.43 14.9896C93.5059 14.9896 92.1134 16.5163 92.1134 18.8317C92.1134 21.1981 93.5059 22.7248 95.43 22.7248C97.3794 22.7248 98.7465 21.1981 98.7465 18.8317ZM111.735 12.5726V15.5751C111.406 15.5242 111.077 15.4987 110.773 15.4987C108.494 15.4987 107.456 16.8219 107.456 19.1373V25.0406H104.52V12.6489H107.38V14.6336C107.963 13.285 109.33 12.4962 110.95 12.4962C111.304 12.4962 111.608 12.5471 111.735 12.5726Z" fill="#1A2642"/>
</svg>
